<mxfile host="Electron" modified="2025-07-06T14:33:59.283Z" agent="Mozilla/5.0 (Windows NT 10.0; Win64; x64) AppleWebKit/537.36 (KHTML, like Gecko) draw.io/24.6.4 Chrome/124.0.6367.207 Electron/30.0.6 Safari/537.36" etag="ZQ-QIPhcqDPZqtGA3SkZ" version="24.6.4" type="device" pages="2">
  <diagram name="Общий" id="SO0X9eCHDszmoeJIWC0o">
    <mxGraphModel dx="740" dy="544" grid="1" gridSize="10" guides="1" tooltips="1" connect="1" arrows="1" fold="1" page="1" pageScale="1" pageWidth="1169" pageHeight="827" math="0" shadow="0">
      <root>
        <mxCell id="0" />
        <mxCell id="1" parent="0" />
        <mxCell id="XJJJVYgW4OXZWgP-59sk-1" value="" style="endArrow=none;html=1;rounded=0;" parent="1" edge="1">
          <mxGeometry width="50" height="50" relative="1" as="geometry">
            <mxPoint x="40" y="80" as="sourcePoint" />
            <mxPoint x="760" y="80" as="targetPoint" />
          </mxGeometry>
        </mxCell>
        <mxCell id="XJJJVYgW4OXZWgP-59sk-2" value="1" style="text;strokeColor=none;align=center;fillColor=none;html=1;verticalAlign=middle;whiteSpace=wrap;rounded=0;fontSize=20;fontStyle=1" parent="1" vertex="1">
          <mxGeometry x="80" width="30" height="30" as="geometry" />
        </mxCell>
        <mxCell id="XJJJVYgW4OXZWgP-59sk-3" value="0" style="text;strokeColor=none;align=center;fillColor=none;html=1;verticalAlign=middle;whiteSpace=wrap;rounded=0;fontSize=20;fontStyle=1" parent="1" vertex="1">
          <mxGeometry x="40" width="30" height="30" as="geometry" />
        </mxCell>
        <mxCell id="XJJJVYgW4OXZWgP-59sk-4" value="2" style="text;strokeColor=none;align=center;fillColor=none;html=1;verticalAlign=middle;whiteSpace=wrap;rounded=0;fontSize=20;fontStyle=1" parent="1" vertex="1">
          <mxGeometry x="120" width="30" height="30" as="geometry" />
        </mxCell>
        <mxCell id="XJJJVYgW4OXZWgP-59sk-5" value="3" style="text;strokeColor=none;align=center;fillColor=none;html=1;verticalAlign=middle;whiteSpace=wrap;rounded=0;fontSize=20;fontStyle=1" parent="1" vertex="1">
          <mxGeometry x="160" width="30" height="30" as="geometry" />
        </mxCell>
        <mxCell id="XJJJVYgW4OXZWgP-59sk-6" value="4" style="text;strokeColor=none;align=center;fillColor=none;html=1;verticalAlign=middle;whiteSpace=wrap;rounded=0;fontSize=20;fontStyle=1" parent="1" vertex="1">
          <mxGeometry x="200" width="30" height="30" as="geometry" />
        </mxCell>
        <mxCell id="XJJJVYgW4OXZWgP-59sk-7" value="5" style="text;strokeColor=none;align=center;fillColor=none;html=1;verticalAlign=middle;whiteSpace=wrap;rounded=0;fontSize=20;fontStyle=1" parent="1" vertex="1">
          <mxGeometry x="240" width="30" height="30" as="geometry" />
        </mxCell>
        <mxCell id="XJJJVYgW4OXZWgP-59sk-8" value="6" style="text;strokeColor=none;align=center;fillColor=none;html=1;verticalAlign=middle;whiteSpace=wrap;rounded=0;fontSize=20;fontStyle=1" parent="1" vertex="1">
          <mxGeometry x="280" width="30" height="30" as="geometry" />
        </mxCell>
        <mxCell id="XJJJVYgW4OXZWgP-59sk-9" value="7" style="text;strokeColor=none;align=center;fillColor=none;html=1;verticalAlign=middle;whiteSpace=wrap;rounded=0;fontSize=20;fontStyle=1" parent="1" vertex="1">
          <mxGeometry x="320" width="30" height="30" as="geometry" />
        </mxCell>
        <mxCell id="XJJJVYgW4OXZWgP-59sk-10" value="8" style="text;strokeColor=none;align=center;fillColor=none;html=1;verticalAlign=middle;whiteSpace=wrap;rounded=0;fontSize=20;fontStyle=1" parent="1" vertex="1">
          <mxGeometry x="360" width="30" height="30" as="geometry" />
        </mxCell>
        <mxCell id="XJJJVYgW4OXZWgP-59sk-11" value="9" style="text;strokeColor=none;align=center;fillColor=none;html=1;verticalAlign=middle;whiteSpace=wrap;rounded=0;fontSize=20;fontStyle=1" parent="1" vertex="1">
          <mxGeometry x="400" width="30" height="30" as="geometry" />
        </mxCell>
        <mxCell id="XJJJVYgW4OXZWgP-59sk-12" value="10" style="text;strokeColor=none;align=center;fillColor=none;html=1;verticalAlign=middle;whiteSpace=wrap;rounded=0;fontSize=20;fontStyle=1" parent="1" vertex="1">
          <mxGeometry x="440" width="30" height="30" as="geometry" />
        </mxCell>
        <mxCell id="XJJJVYgW4OXZWgP-59sk-13" value="11" style="text;strokeColor=none;align=center;fillColor=none;html=1;verticalAlign=middle;whiteSpace=wrap;rounded=0;fontSize=20;fontStyle=1" parent="1" vertex="1">
          <mxGeometry x="480" width="30" height="30" as="geometry" />
        </mxCell>
        <mxCell id="XJJJVYgW4OXZWgP-59sk-14" value="12" style="text;strokeColor=none;align=center;fillColor=none;html=1;verticalAlign=middle;whiteSpace=wrap;rounded=0;fontSize=20;fontStyle=1" parent="1" vertex="1">
          <mxGeometry x="520" width="30" height="30" as="geometry" />
        </mxCell>
        <mxCell id="XJJJVYgW4OXZWgP-59sk-15" value="" style="endArrow=none;html=1;rounded=0;" parent="1" edge="1">
          <mxGeometry width="50" height="50" relative="1" as="geometry">
            <mxPoint x="40" y="120" as="sourcePoint" />
            <mxPoint x="760" y="120" as="targetPoint" />
          </mxGeometry>
        </mxCell>
        <mxCell id="XJJJVYgW4OXZWgP-59sk-16" value="" style="endArrow=none;html=1;rounded=0;" parent="1" edge="1">
          <mxGeometry width="50" height="50" relative="1" as="geometry">
            <mxPoint x="40" y="160" as="sourcePoint" />
            <mxPoint x="760" y="160" as="targetPoint" />
          </mxGeometry>
        </mxCell>
        <mxCell id="XJJJVYgW4OXZWgP-59sk-17" value="" style="endArrow=none;html=1;rounded=0;" parent="1" edge="1">
          <mxGeometry width="50" height="50" relative="1" as="geometry">
            <mxPoint x="40" y="200" as="sourcePoint" />
            <mxPoint x="760" y="200" as="targetPoint" />
          </mxGeometry>
        </mxCell>
        <mxCell id="XJJJVYgW4OXZWgP-59sk-18" value="" style="endArrow=none;html=1;rounded=0;" parent="1" edge="1">
          <mxGeometry width="50" height="50" relative="1" as="geometry">
            <mxPoint x="40" y="240" as="sourcePoint" />
            <mxPoint x="760" y="240" as="targetPoint" />
          </mxGeometry>
        </mxCell>
        <mxCell id="XJJJVYgW4OXZWgP-59sk-19" value="" style="endArrow=none;html=1;rounded=0;" parent="1" edge="1">
          <mxGeometry width="50" height="50" relative="1" as="geometry">
            <mxPoint x="40" y="280" as="sourcePoint" />
            <mxPoint x="760" y="280" as="targetPoint" />
          </mxGeometry>
        </mxCell>
        <mxCell id="XJJJVYgW4OXZWgP-59sk-20" value="" style="ellipse;whiteSpace=wrap;html=1;aspect=fixed;strokeColor=#CCCCCC;strokeWidth=3;" parent="1" vertex="1">
          <mxGeometry x="520" y="210" width="30" height="30" as="geometry" />
        </mxCell>
        <mxCell id="XJJJVYgW4OXZWgP-59sk-21" value="" style="ellipse;whiteSpace=wrap;html=1;aspect=fixed;strokeColor=#CCCCCC;strokeWidth=3;" parent="1" vertex="1">
          <mxGeometry x="520" y="120" width="30" height="30" as="geometry" />
        </mxCell>
        <mxCell id="XJJJVYgW4OXZWgP-59sk-22" value="" style="ellipse;whiteSpace=wrap;html=1;aspect=fixed;strokeColor=#CCCCCC;strokeWidth=3;" parent="1" vertex="1">
          <mxGeometry x="160" y="170" width="30" height="30" as="geometry" />
        </mxCell>
        <mxCell id="XJJJVYgW4OXZWgP-59sk-23" value="" style="ellipse;whiteSpace=wrap;html=1;aspect=fixed;strokeColor=#CCCCCC;strokeWidth=3;" parent="1" vertex="1">
          <mxGeometry x="240" y="170" width="30" height="30" as="geometry" />
        </mxCell>
        <mxCell id="XJJJVYgW4OXZWgP-59sk-24" value="" style="ellipse;whiteSpace=wrap;html=1;aspect=fixed;strokeColor=#CCCCCC;strokeWidth=3;" parent="1" vertex="1">
          <mxGeometry x="320" y="170" width="30" height="30" as="geometry" />
        </mxCell>
        <mxCell id="XJJJVYgW4OXZWgP-59sk-25" value="" style="ellipse;whiteSpace=wrap;html=1;aspect=fixed;strokeColor=#CCCCCC;strokeWidth=3;" parent="1" vertex="1">
          <mxGeometry x="390" y="170" width="30" height="30" as="geometry" />
        </mxCell>
        <mxCell id="7yaf4bMwB0gXNvTUAqOY-1" value="" style="ellipse;whiteSpace=wrap;html=1;aspect=fixed;strokeColor=#CCCCCC;strokeWidth=3;" vertex="1" parent="1">
          <mxGeometry x="640" y="170" width="30" height="30" as="geometry" />
        </mxCell>
        <mxCell id="7yaf4bMwB0gXNvTUAqOY-2" value="" style="ellipse;whiteSpace=wrap;html=1;aspect=fixed;strokeColor=#CCCCCC;strokeWidth=3;" vertex="1" parent="1">
          <mxGeometry x="730" y="170" width="30" height="30" as="geometry" />
        </mxCell>
        <mxCell id="7yaf4bMwB0gXNvTUAqOY-3" value="13" style="text;strokeColor=none;align=center;fillColor=none;html=1;verticalAlign=middle;whiteSpace=wrap;rounded=0;fontSize=20;fontStyle=1" vertex="1" parent="1">
          <mxGeometry x="570" width="30" height="30" as="geometry" />
        </mxCell>
        <mxCell id="7yaf4bMwB0gXNvTUAqOY-4" value="14" style="text;strokeColor=none;align=center;fillColor=none;html=1;verticalAlign=middle;whiteSpace=wrap;rounded=0;fontSize=20;fontStyle=1" vertex="1" parent="1">
          <mxGeometry x="610" width="30" height="30" as="geometry" />
        </mxCell>
        <mxCell id="7yaf4bMwB0gXNvTUAqOY-5" value="15" style="text;strokeColor=none;align=center;fillColor=none;html=1;verticalAlign=middle;whiteSpace=wrap;rounded=0;fontSize=20;fontStyle=1" vertex="1" parent="1">
          <mxGeometry x="650" width="30" height="30" as="geometry" />
        </mxCell>
        <mxCell id="7yaf4bMwB0gXNvTUAqOY-6" value="16" style="text;strokeColor=none;align=center;fillColor=none;html=1;verticalAlign=middle;whiteSpace=wrap;rounded=0;fontSize=20;fontStyle=1" vertex="1" parent="1">
          <mxGeometry x="690" width="30" height="30" as="geometry" />
        </mxCell>
        <mxCell id="7yaf4bMwB0gXNvTUAqOY-7" value="17" style="text;strokeColor=none;align=center;fillColor=none;html=1;verticalAlign=middle;whiteSpace=wrap;rounded=0;fontSize=20;fontStyle=1" vertex="1" parent="1">
          <mxGeometry x="730" width="30" height="30" as="geometry" />
        </mxCell>
        <mxCell id="7yaf4bMwB0gXNvTUAqOY-8" value="1" style="text;strokeColor=none;align=center;fillColor=none;html=1;verticalAlign=middle;whiteSpace=wrap;rounded=0;fontSize=20;fontStyle=1" vertex="1" parent="1">
          <mxGeometry y="50" width="30" height="30" as="geometry" />
        </mxCell>
        <mxCell id="7yaf4bMwB0gXNvTUAqOY-10" value="2" style="text;strokeColor=none;align=center;fillColor=none;html=1;verticalAlign=middle;whiteSpace=wrap;rounded=0;fontSize=20;fontStyle=1" vertex="1" parent="1">
          <mxGeometry y="90" width="30" height="30" as="geometry" />
        </mxCell>
        <mxCell id="7yaf4bMwB0gXNvTUAqOY-13" value="3" style="text;strokeColor=none;align=center;fillColor=none;html=1;verticalAlign=middle;whiteSpace=wrap;rounded=0;fontSize=20;fontStyle=1" vertex="1" parent="1">
          <mxGeometry y="130" width="30" height="30" as="geometry" />
        </mxCell>
        <mxCell id="7yaf4bMwB0gXNvTUAqOY-14" value="4" style="text;strokeColor=none;align=center;fillColor=none;html=1;verticalAlign=middle;whiteSpace=wrap;rounded=0;fontSize=20;fontStyle=1" vertex="1" parent="1">
          <mxGeometry y="170" width="30" height="30" as="geometry" />
        </mxCell>
        <mxCell id="7yaf4bMwB0gXNvTUAqOY-16" value="5" style="text;strokeColor=none;align=center;fillColor=none;html=1;verticalAlign=middle;whiteSpace=wrap;rounded=0;fontSize=20;fontStyle=1" vertex="1" parent="1">
          <mxGeometry y="210" width="30" height="30" as="geometry" />
        </mxCell>
        <mxCell id="7yaf4bMwB0gXNvTUAqOY-19" value="6" style="text;strokeColor=none;align=center;fillColor=none;html=1;verticalAlign=middle;whiteSpace=wrap;rounded=0;fontSize=20;fontStyle=1" vertex="1" parent="1">
          <mxGeometry y="250" width="30" height="30" as="geometry" />
        </mxCell>
      </root>
    </mxGraphModel>
  </diagram>
  <diagram name="Сводная" id="4gdp7ijkrVG5LGxxxZ0n">
    <mxGraphModel dx="942" dy="640" grid="1" gridSize="10" guides="1" tooltips="1" connect="1" arrows="1" fold="1" page="1" pageScale="1" pageWidth="1169" pageHeight="827" math="0" shadow="0">
      <root>
        <mxCell id="z-EQUoiPfeqX8l1Wrxvd-0" />
        <mxCell id="z-EQUoiPfeqX8l1Wrxvd-1" parent="z-EQUoiPfeqX8l1Wrxvd-0" />
        <mxCell id="z-EQUoiPfeqX8l1Wrxvd-2" value="" style="endArrow=none;html=1;rounded=0;" parent="z-EQUoiPfeqX8l1Wrxvd-1" edge="1">
          <mxGeometry width="50" height="50" relative="1" as="geometry">
            <mxPoint x="40" y="150" as="sourcePoint" />
            <mxPoint x="760" y="150" as="targetPoint" />
          </mxGeometry>
        </mxCell>
        <mxCell id="z-EQUoiPfeqX8l1Wrxvd-3" value="1" style="text;strokeColor=none;align=center;fillColor=none;html=1;verticalAlign=middle;whiteSpace=wrap;rounded=0;fontSize=20;fontStyle=1" parent="z-EQUoiPfeqX8l1Wrxvd-1" vertex="1">
          <mxGeometry x="80" y="77" width="30" height="30" as="geometry" />
        </mxCell>
        <mxCell id="z-EQUoiPfeqX8l1Wrxvd-4" value="0" style="text;strokeColor=none;align=center;fillColor=none;html=1;verticalAlign=middle;whiteSpace=wrap;rounded=0;fontSize=20;fontStyle=1" parent="z-EQUoiPfeqX8l1Wrxvd-1" vertex="1">
          <mxGeometry x="40" y="77" width="30" height="30" as="geometry" />
        </mxCell>
        <mxCell id="z-EQUoiPfeqX8l1Wrxvd-5" value="2" style="text;strokeColor=none;align=center;fillColor=none;html=1;verticalAlign=middle;whiteSpace=wrap;rounded=0;fontSize=20;fontStyle=1" parent="z-EQUoiPfeqX8l1Wrxvd-1" vertex="1">
          <mxGeometry x="120" y="77" width="30" height="30" as="geometry" />
        </mxCell>
        <mxCell id="z-EQUoiPfeqX8l1Wrxvd-6" value="3" style="text;strokeColor=none;align=center;fillColor=none;html=1;verticalAlign=middle;whiteSpace=wrap;rounded=0;fontSize=20;fontStyle=1" parent="z-EQUoiPfeqX8l1Wrxvd-1" vertex="1">
          <mxGeometry x="160" y="77" width="30" height="30" as="geometry" />
        </mxCell>
        <mxCell id="z-EQUoiPfeqX8l1Wrxvd-7" value="4" style="text;strokeColor=none;align=center;fillColor=none;html=1;verticalAlign=middle;whiteSpace=wrap;rounded=0;fontSize=20;fontStyle=1" parent="z-EQUoiPfeqX8l1Wrxvd-1" vertex="1">
          <mxGeometry x="200" y="77" width="30" height="30" as="geometry" />
        </mxCell>
        <mxCell id="z-EQUoiPfeqX8l1Wrxvd-8" value="5" style="text;strokeColor=none;align=center;fillColor=none;html=1;verticalAlign=middle;whiteSpace=wrap;rounded=0;fontSize=20;fontStyle=1" parent="z-EQUoiPfeqX8l1Wrxvd-1" vertex="1">
          <mxGeometry x="240" y="77" width="30" height="30" as="geometry" />
        </mxCell>
        <mxCell id="z-EQUoiPfeqX8l1Wrxvd-9" value="6" style="text;strokeColor=none;align=center;fillColor=none;html=1;verticalAlign=middle;whiteSpace=wrap;rounded=0;fontSize=20;fontStyle=1" parent="z-EQUoiPfeqX8l1Wrxvd-1" vertex="1">
          <mxGeometry x="280" y="77" width="30" height="30" as="geometry" />
        </mxCell>
        <mxCell id="z-EQUoiPfeqX8l1Wrxvd-10" value="7" style="text;strokeColor=none;align=center;fillColor=none;html=1;verticalAlign=middle;whiteSpace=wrap;rounded=0;fontSize=20;fontStyle=1" parent="z-EQUoiPfeqX8l1Wrxvd-1" vertex="1">
          <mxGeometry x="320" y="77" width="30" height="30" as="geometry" />
        </mxCell>
        <mxCell id="z-EQUoiPfeqX8l1Wrxvd-11" value="8" style="text;strokeColor=none;align=center;fillColor=none;html=1;verticalAlign=middle;whiteSpace=wrap;rounded=0;fontSize=20;fontStyle=1" parent="z-EQUoiPfeqX8l1Wrxvd-1" vertex="1">
          <mxGeometry x="360" y="77" width="30" height="30" as="geometry" />
        </mxCell>
        <mxCell id="z-EQUoiPfeqX8l1Wrxvd-12" value="9" style="text;strokeColor=none;align=center;fillColor=none;html=1;verticalAlign=middle;whiteSpace=wrap;rounded=0;fontSize=20;fontStyle=1" parent="z-EQUoiPfeqX8l1Wrxvd-1" vertex="1">
          <mxGeometry x="400" y="77" width="30" height="30" as="geometry" />
        </mxCell>
        <mxCell id="z-EQUoiPfeqX8l1Wrxvd-13" value="10" style="text;strokeColor=none;align=center;fillColor=none;html=1;verticalAlign=middle;whiteSpace=wrap;rounded=0;fontSize=20;fontStyle=1" parent="z-EQUoiPfeqX8l1Wrxvd-1" vertex="1">
          <mxGeometry x="440" y="77" width="30" height="30" as="geometry" />
        </mxCell>
        <mxCell id="z-EQUoiPfeqX8l1Wrxvd-14" value="11" style="text;strokeColor=none;align=center;fillColor=none;html=1;verticalAlign=middle;whiteSpace=wrap;rounded=0;fontSize=20;fontStyle=1" parent="z-EQUoiPfeqX8l1Wrxvd-1" vertex="1">
          <mxGeometry x="480" y="77" width="30" height="30" as="geometry" />
        </mxCell>
        <mxCell id="z-EQUoiPfeqX8l1Wrxvd-15" value="12" style="text;strokeColor=none;align=center;fillColor=none;html=1;verticalAlign=middle;whiteSpace=wrap;rounded=0;fontSize=20;fontStyle=1" parent="z-EQUoiPfeqX8l1Wrxvd-1" vertex="1">
          <mxGeometry x="520" y="77" width="30" height="30" as="geometry" />
        </mxCell>
        <mxCell id="z-EQUoiPfeqX8l1Wrxvd-16" value="" style="endArrow=none;html=1;rounded=0;" parent="z-EQUoiPfeqX8l1Wrxvd-1" edge="1">
          <mxGeometry width="50" height="50" relative="1" as="geometry">
            <mxPoint x="40" y="190" as="sourcePoint" />
            <mxPoint x="760" y="190" as="targetPoint" />
          </mxGeometry>
        </mxCell>
        <mxCell id="z-EQUoiPfeqX8l1Wrxvd-17" value="" style="endArrow=none;html=1;rounded=0;" parent="z-EQUoiPfeqX8l1Wrxvd-1" edge="1">
          <mxGeometry width="50" height="50" relative="1" as="geometry">
            <mxPoint x="40" y="230" as="sourcePoint" />
            <mxPoint x="760" y="230" as="targetPoint" />
          </mxGeometry>
        </mxCell>
        <mxCell id="z-EQUoiPfeqX8l1Wrxvd-18" value="" style="endArrow=none;html=1;rounded=0;" parent="z-EQUoiPfeqX8l1Wrxvd-1" edge="1">
          <mxGeometry width="50" height="50" relative="1" as="geometry">
            <mxPoint x="40" y="270" as="sourcePoint" />
            <mxPoint x="760" y="270" as="targetPoint" />
          </mxGeometry>
        </mxCell>
        <mxCell id="z-EQUoiPfeqX8l1Wrxvd-19" value="" style="endArrow=none;html=1;rounded=0;" parent="z-EQUoiPfeqX8l1Wrxvd-1" edge="1">
          <mxGeometry width="50" height="50" relative="1" as="geometry">
            <mxPoint x="40" y="310" as="sourcePoint" />
            <mxPoint x="760" y="310" as="targetPoint" />
          </mxGeometry>
        </mxCell>
        <mxCell id="z-EQUoiPfeqX8l1Wrxvd-20" value="" style="endArrow=none;html=1;rounded=0;" parent="z-EQUoiPfeqX8l1Wrxvd-1" edge="1">
          <mxGeometry width="50" height="50" relative="1" as="geometry">
            <mxPoint x="40" y="350" as="sourcePoint" />
            <mxPoint x="760" y="350" as="targetPoint" />
          </mxGeometry>
        </mxCell>
        <mxCell id="z-EQUoiPfeqX8l1Wrxvd-21" value="" style="ellipse;whiteSpace=wrap;html=1;aspect=fixed;strokeColor=#CCCCCC;strokeWidth=3;" parent="z-EQUoiPfeqX8l1Wrxvd-1" vertex="1">
          <mxGeometry x="525" y="275" width="30" height="30" as="geometry" />
        </mxCell>
        <mxCell id="z-EQUoiPfeqX8l1Wrxvd-22" value="" style="ellipse;whiteSpace=wrap;html=1;aspect=fixed;strokeColor=#CCCCCC;strokeWidth=3;" parent="z-EQUoiPfeqX8l1Wrxvd-1" vertex="1">
          <mxGeometry x="525" y="195" width="30" height="30" as="geometry" />
        </mxCell>
        <mxCell id="z-EQUoiPfeqX8l1Wrxvd-23" value="" style="ellipse;whiteSpace=wrap;html=1;aspect=fixed;strokeColor=#CCCCCC;strokeWidth=3;" parent="z-EQUoiPfeqX8l1Wrxvd-1" vertex="1">
          <mxGeometry x="163" y="236" width="30" height="30" as="geometry" />
        </mxCell>
        <mxCell id="z-EQUoiPfeqX8l1Wrxvd-24" value="" style="ellipse;whiteSpace=wrap;html=1;aspect=fixed;strokeColor=#CCCCCC;strokeWidth=3;" parent="z-EQUoiPfeqX8l1Wrxvd-1" vertex="1">
          <mxGeometry x="246" y="236" width="30" height="30" as="geometry" />
        </mxCell>
        <mxCell id="z-EQUoiPfeqX8l1Wrxvd-25" value="" style="ellipse;whiteSpace=wrap;html=1;aspect=fixed;strokeColor=#CCCCCC;strokeWidth=3;" parent="z-EQUoiPfeqX8l1Wrxvd-1" vertex="1">
          <mxGeometry x="325" y="236" width="30" height="30" as="geometry" />
        </mxCell>
        <mxCell id="z-EQUoiPfeqX8l1Wrxvd-26" value="" style="ellipse;whiteSpace=wrap;html=1;aspect=fixed;strokeColor=#CCCCCC;strokeWidth=3;" parent="z-EQUoiPfeqX8l1Wrxvd-1" vertex="1">
          <mxGeometry x="404" y="235" width="30" height="30" as="geometry" />
        </mxCell>
        <mxCell id="z-EQUoiPfeqX8l1Wrxvd-27" value="" style="ellipse;whiteSpace=wrap;html=1;aspect=fixed;strokeColor=#CCCCCC;strokeWidth=3;" parent="z-EQUoiPfeqX8l1Wrxvd-1" vertex="1">
          <mxGeometry x="645" y="234" width="30" height="30" as="geometry" />
        </mxCell>
        <mxCell id="z-EQUoiPfeqX8l1Wrxvd-28" value="" style="ellipse;whiteSpace=wrap;html=1;aspect=fixed;strokeColor=#CCCCCC;strokeWidth=3;" parent="z-EQUoiPfeqX8l1Wrxvd-1" vertex="1">
          <mxGeometry x="725" y="235" width="30" height="30" as="geometry" />
        </mxCell>
        <mxCell id="z-EQUoiPfeqX8l1Wrxvd-29" value="13" style="text;strokeColor=none;align=center;fillColor=none;html=1;verticalAlign=middle;whiteSpace=wrap;rounded=0;fontSize=20;fontStyle=1" parent="z-EQUoiPfeqX8l1Wrxvd-1" vertex="1">
          <mxGeometry x="570" y="77" width="30" height="30" as="geometry" />
        </mxCell>
        <mxCell id="z-EQUoiPfeqX8l1Wrxvd-30" value="14" style="text;strokeColor=none;align=center;fillColor=none;html=1;verticalAlign=middle;whiteSpace=wrap;rounded=0;fontSize=20;fontStyle=1" parent="z-EQUoiPfeqX8l1Wrxvd-1" vertex="1">
          <mxGeometry x="610" y="77" width="30" height="30" as="geometry" />
        </mxCell>
        <mxCell id="z-EQUoiPfeqX8l1Wrxvd-31" value="15" style="text;strokeColor=none;align=center;fillColor=none;html=1;verticalAlign=middle;whiteSpace=wrap;rounded=0;fontSize=20;fontStyle=1" parent="z-EQUoiPfeqX8l1Wrxvd-1" vertex="1">
          <mxGeometry x="650" y="77" width="30" height="30" as="geometry" />
        </mxCell>
        <mxCell id="z-EQUoiPfeqX8l1Wrxvd-32" value="16" style="text;strokeColor=none;align=center;fillColor=none;html=1;verticalAlign=middle;whiteSpace=wrap;rounded=0;fontSize=20;fontStyle=1" parent="z-EQUoiPfeqX8l1Wrxvd-1" vertex="1">
          <mxGeometry x="690" y="77" width="30" height="30" as="geometry" />
        </mxCell>
        <mxCell id="z-EQUoiPfeqX8l1Wrxvd-33" value="17" style="text;strokeColor=none;align=center;fillColor=none;html=1;verticalAlign=middle;whiteSpace=wrap;rounded=0;fontSize=20;fontStyle=1" parent="z-EQUoiPfeqX8l1Wrxvd-1" vertex="1">
          <mxGeometry x="730" y="77" width="30" height="30" as="geometry" />
        </mxCell>
        <mxCell id="z-EQUoiPfeqX8l1Wrxvd-34" value="1" style="text;strokeColor=none;align=center;fillColor=none;html=1;verticalAlign=middle;whiteSpace=wrap;rounded=0;fontSize=20;fontStyle=1" parent="z-EQUoiPfeqX8l1Wrxvd-1" vertex="1">
          <mxGeometry y="120" width="30" height="30" as="geometry" />
        </mxCell>
        <mxCell id="z-EQUoiPfeqX8l1Wrxvd-35" value="2" style="text;strokeColor=none;align=center;fillColor=none;html=1;verticalAlign=middle;whiteSpace=wrap;rounded=0;fontSize=20;fontStyle=1" parent="z-EQUoiPfeqX8l1Wrxvd-1" vertex="1">
          <mxGeometry y="160" width="30" height="30" as="geometry" />
        </mxCell>
        <mxCell id="z-EQUoiPfeqX8l1Wrxvd-36" value="3" style="text;strokeColor=none;align=center;fillColor=none;html=1;verticalAlign=middle;whiteSpace=wrap;rounded=0;fontSize=20;fontStyle=1" parent="z-EQUoiPfeqX8l1Wrxvd-1" vertex="1">
          <mxGeometry y="200" width="30" height="30" as="geometry" />
        </mxCell>
        <mxCell id="z-EQUoiPfeqX8l1Wrxvd-37" value="4" style="text;strokeColor=none;align=center;fillColor=none;html=1;verticalAlign=middle;whiteSpace=wrap;rounded=0;fontSize=20;fontStyle=1" parent="z-EQUoiPfeqX8l1Wrxvd-1" vertex="1">
          <mxGeometry y="240" width="30" height="30" as="geometry" />
        </mxCell>
        <mxCell id="z-EQUoiPfeqX8l1Wrxvd-38" value="5" style="text;strokeColor=none;align=center;fillColor=none;html=1;verticalAlign=middle;whiteSpace=wrap;rounded=0;fontSize=20;fontStyle=1" parent="z-EQUoiPfeqX8l1Wrxvd-1" vertex="1">
          <mxGeometry y="280" width="30" height="30" as="geometry" />
        </mxCell>
        <mxCell id="z-EQUoiPfeqX8l1Wrxvd-39" value="6" style="text;strokeColor=none;align=center;fillColor=none;html=1;verticalAlign=middle;whiteSpace=wrap;rounded=0;fontSize=20;fontStyle=1" parent="z-EQUoiPfeqX8l1Wrxvd-1" vertex="1">
          <mxGeometry y="320" width="30" height="30" as="geometry" />
        </mxCell>
        <mxCell id="z-EQUoiPfeqX8l1Wrxvd-40" value="" style="ellipse;whiteSpace=wrap;html=1;aspect=fixed;strokeColor=#CCCCCC;strokeWidth=3;connectable=0;" parent="z-EQUoiPfeqX8l1Wrxvd-1" vertex="1">
          <mxGeometry x="163" y="236" width="30" height="30" as="geometry" />
        </mxCell>
        <mxCell id="z-EQUoiPfeqX8l1Wrxvd-41" value="" style="ellipse;whiteSpace=wrap;html=1;aspect=fixed;strokeColor=#CCCCCC;strokeWidth=3;connectable=0;" parent="z-EQUoiPfeqX8l1Wrxvd-1" vertex="1">
          <mxGeometry x="246" y="236" width="30" height="30" as="geometry" />
        </mxCell>
        <mxCell id="z-EQUoiPfeqX8l1Wrxvd-42" value="" style="ellipse;whiteSpace=wrap;html=1;aspect=fixed;strokeColor=#CCCCCC;strokeWidth=3;connectable=0;" parent="z-EQUoiPfeqX8l1Wrxvd-1" vertex="1">
          <mxGeometry x="325" y="236" width="30" height="30" as="geometry" />
        </mxCell>
        <mxCell id="z-EQUoiPfeqX8l1Wrxvd-43" value="" style="ellipse;whiteSpace=wrap;html=1;aspect=fixed;strokeColor=#CCCCCC;strokeWidth=3;connectable=0;" parent="z-EQUoiPfeqX8l1Wrxvd-1" vertex="1">
          <mxGeometry x="404" y="235" width="30" height="30" as="geometry" />
        </mxCell>
        <mxCell id="z-EQUoiPfeqX8l1Wrxvd-44" value="" style="ellipse;whiteSpace=wrap;html=1;aspect=fixed;strokeColor=#CCCCCC;strokeWidth=3;connectable=0;" parent="z-EQUoiPfeqX8l1Wrxvd-1" vertex="1">
          <mxGeometry x="525" y="195" width="30" height="30" as="geometry" />
        </mxCell>
        <mxCell id="z-EQUoiPfeqX8l1Wrxvd-45" value="" style="ellipse;whiteSpace=wrap;html=1;aspect=fixed;strokeColor=#CCCCCC;strokeWidth=3;connectable=0;" parent="z-EQUoiPfeqX8l1Wrxvd-1" vertex="1">
          <mxGeometry x="525" y="275" width="30" height="30" as="geometry" />
        </mxCell>
        <mxCell id="z-EQUoiPfeqX8l1Wrxvd-46" value="" style="ellipse;whiteSpace=wrap;html=1;aspect=fixed;strokeColor=#CCCCCC;strokeWidth=3;connectable=0;" parent="z-EQUoiPfeqX8l1Wrxvd-1" vertex="1">
          <mxGeometry x="163" y="236" width="30" height="30" as="geometry" />
        </mxCell>
        <mxCell id="z-EQUoiPfeqX8l1Wrxvd-47" value="" style="ellipse;whiteSpace=wrap;html=1;aspect=fixed;strokeColor=#CCCCCC;strokeWidth=3;connectable=0;" parent="z-EQUoiPfeqX8l1Wrxvd-1" vertex="1">
          <mxGeometry x="246" y="236" width="30" height="30" as="geometry" />
        </mxCell>
        <mxCell id="z-EQUoiPfeqX8l1Wrxvd-48" value="" style="ellipse;whiteSpace=wrap;html=1;aspect=fixed;strokeColor=#CCCCCC;strokeWidth=3;connectable=0;" parent="z-EQUoiPfeqX8l1Wrxvd-1" vertex="1">
          <mxGeometry x="325" y="236" width="30" height="30" as="geometry" />
        </mxCell>
        <mxCell id="z-EQUoiPfeqX8l1Wrxvd-49" value="" style="ellipse;whiteSpace=wrap;html=1;aspect=fixed;strokeColor=#CCCCCC;strokeWidth=3;connectable=0;" parent="z-EQUoiPfeqX8l1Wrxvd-1" vertex="1">
          <mxGeometry x="404" y="235" width="30" height="30" as="geometry" />
        </mxCell>
        <mxCell id="z-EQUoiPfeqX8l1Wrxvd-50" value="" style="ellipse;whiteSpace=wrap;html=1;aspect=fixed;strokeColor=#CCCCCC;strokeWidth=3;connectable=0;" parent="z-EQUoiPfeqX8l1Wrxvd-1" vertex="1">
          <mxGeometry x="525" y="195" width="30" height="30" as="geometry" />
        </mxCell>
        <mxCell id="z-EQUoiPfeqX8l1Wrxvd-51" value="" style="ellipse;whiteSpace=wrap;html=1;aspect=fixed;strokeColor=#CCCCCC;strokeWidth=3;connectable=0;" parent="z-EQUoiPfeqX8l1Wrxvd-1" vertex="1">
          <mxGeometry x="525" y="275" width="30" height="30" as="geometry" />
        </mxCell>
        <mxCell id="z-EQUoiPfeqX8l1Wrxvd-53" value="&lt;font style=&quot;font-size: 17px;&quot;&gt;&lt;b&gt;F&lt;/b&gt;&lt;/font&gt;" style="ellipse;whiteSpace=wrap;html=1;aspect=fixed;strokeColor=#FF0000;strokeWidth=3;connectable=0;movable=1;resizable=1;rotatable=1;deletable=1;editable=1;locked=0;fillColor=#FFFFCC;allowArrows=0;" parent="z-EQUoiPfeqX8l1Wrxvd-1" vertex="1">
          <mxGeometry x="370" y="300" width="20" height="20" as="geometry" />
        </mxCell>
        <mxCell id="z-EQUoiPfeqX8l1Wrxvd-56" value="&lt;font size=&quot;1&quot; style=&quot;&quot;&gt;&lt;b style=&quot;font-size: 17px;&quot;&gt;C&lt;/b&gt;&lt;/font&gt;" style="ellipse;whiteSpace=wrap;html=1;aspect=fixed;strokeColor=#000000;strokeWidth=1;connectable=0;movable=1;resizable=1;rotatable=1;deletable=1;editable=1;locked=0;fillColor=#FFCCCC;allowArrows=0;" parent="z-EQUoiPfeqX8l1Wrxvd-1" vertex="1">
          <mxGeometry x="450" y="260" width="20" height="20" as="geometry" />
        </mxCell>
        <mxCell id="z-EQUoiPfeqX8l1Wrxvd-59" value="&lt;font size=&quot;1&quot; style=&quot;&quot;&gt;&lt;b style=&quot;font-size: 17px;&quot;&gt;F&lt;/b&gt;&lt;/font&gt;" style="ellipse;whiteSpace=wrap;html=1;aspect=fixed;strokeColor=#FF0000;strokeWidth=3;connectable=0;movable=1;resizable=1;rotatable=1;deletable=1;editable=1;locked=0;fillColor=#FFCCCC;allowArrows=0;" parent="z-EQUoiPfeqX8l1Wrxvd-1" vertex="1">
          <mxGeometry x="450" y="220" width="20" height="20" as="geometry" />
        </mxCell>
        <mxCell id="z-EQUoiPfeqX8l1Wrxvd-60" value="&lt;font size=&quot;1&quot; style=&quot;&quot;&gt;&lt;b style=&quot;font-size: 17px;&quot;&gt;G&lt;/b&gt;&lt;/font&gt;" style="ellipse;whiteSpace=wrap;html=1;aspect=fixed;strokeColor=default;strokeWidth=1;connectable=0;movable=1;resizable=1;rotatable=1;deletable=1;editable=1;locked=0;fillColor=#FFCCCC;allowArrows=0;" parent="z-EQUoiPfeqX8l1Wrxvd-1" vertex="1">
          <mxGeometry x="370" y="180" width="20" height="20" as="geometry" />
        </mxCell>
        <mxCell id="z-EQUoiPfeqX8l1Wrxvd-63" value="&lt;span style=&quot;font-size: 17px;&quot;&gt;&lt;b&gt;C&lt;/b&gt;&lt;/span&gt;" style="ellipse;whiteSpace=wrap;html=1;aspect=fixed;strokeColor=#000000;strokeWidth=1;connectable=0;movable=1;resizable=1;rotatable=1;deletable=1;editable=1;locked=0;fillColor=#CCCCFF;allowArrows=0;" parent="z-EQUoiPfeqX8l1Wrxvd-1" vertex="1">
          <mxGeometry x="370" y="140" width="20" height="20" as="geometry" />
        </mxCell>
        <mxCell id="z-EQUoiPfeqX8l1Wrxvd-64" value="ФА - МИНОР" style="text;strokeColor=none;align=center;fillColor=none;html=1;verticalAlign=middle;whiteSpace=wrap;rounded=0;fontSize=20;fontStyle=1" parent="z-EQUoiPfeqX8l1Wrxvd-1" vertex="1">
          <mxGeometry x="30" y="10" width="175" height="30" as="geometry" />
        </mxCell>
        <mxCell id="z-EQUoiPfeqX8l1Wrxvd-65" value="&lt;font style=&quot;font-size: 17px;&quot;&gt;&lt;b&gt;C&lt;/b&gt;&lt;/font&gt;" style="ellipse;whiteSpace=wrap;html=1;aspect=fixed;strokeColor=default;strokeWidth=1;connectable=0;movable=1;resizable=1;rotatable=1;deletable=1;editable=1;locked=0;fillColor=#FFFFCC;allowArrows=0;" parent="z-EQUoiPfeqX8l1Wrxvd-1" vertex="1">
          <mxGeometry x="370" y="338" width="20" height="20" as="geometry" />
        </mxCell>
        <mxCell id="z-EQUoiPfeqX8l1Wrxvd-66" value="&lt;font style=&quot;font-size: 17px;&quot;&gt;&lt;b&gt;G&lt;/b&gt;&lt;/font&gt;" style="ellipse;whiteSpace=wrap;html=1;aspect=fixed;strokeColor=default;strokeWidth=1;connectable=0;movable=1;resizable=1;rotatable=1;deletable=1;editable=1;locked=0;fillColor=#FFFFCC;allowArrows=0;" parent="z-EQUoiPfeqX8l1Wrxvd-1" vertex="1">
          <mxGeometry x="450" y="300" width="20" height="20" as="geometry" />
        </mxCell>
        <mxCell id="z-EQUoiPfeqX8l1Wrxvd-68" value="ДО РЕ МИ ФА СОЛЬ ЛЯ СИ&lt;div&gt;C&amp;nbsp; &amp;nbsp; D&amp;nbsp; &amp;nbsp; E&amp;nbsp; &amp;nbsp; &amp;nbsp;F&amp;nbsp; &amp;nbsp; &amp;nbsp;G&amp;nbsp; &amp;nbsp; &amp;nbsp; &amp;nbsp;A&amp;nbsp; &amp;nbsp;B&lt;/div&gt;" style="text;strokeColor=none;align=center;fillColor=none;html=1;verticalAlign=middle;whiteSpace=wrap;rounded=0;fontSize=20;fontStyle=1" parent="z-EQUoiPfeqX8l1Wrxvd-1" vertex="1">
          <mxGeometry x="450" y="20" width="335" height="30" as="geometry" />
        </mxCell>
        <mxCell id="z-EQUoiPfeqX8l1Wrxvd-69" value="Т - П - Т - Т - П - Т - Т" style="text;strokeColor=none;align=center;fillColor=none;html=1;verticalAlign=middle;whiteSpace=wrap;rounded=0;fontSize=20;fontStyle=1" parent="z-EQUoiPfeqX8l1Wrxvd-1" vertex="1">
          <mxGeometry x="15" y="50" width="215" height="30" as="geometry" />
        </mxCell>
        <mxCell id="z-EQUoiPfeqX8l1Wrxvd-71" value="F-G-G#-A#-C-C#-D#-F" style="text;strokeColor=none;align=center;fillColor=none;html=1;verticalAlign=middle;whiteSpace=wrap;rounded=0;fontSize=20;fontStyle=1" parent="z-EQUoiPfeqX8l1Wrxvd-1" vertex="1">
          <mxGeometry x="235" y="40" width="255" height="30" as="geometry" />
        </mxCell>
        <mxCell id="z-EQUoiPfeqX8l1Wrxvd-73" value="&lt;font style=&quot;font-size: 17px;&quot;&gt;&lt;b&gt;D#&lt;/b&gt;&lt;/font&gt;" style="ellipse;whiteSpace=wrap;html=1;aspect=fixed;strokeColor=default;strokeWidth=1;connectable=0;movable=1;resizable=1;rotatable=1;deletable=1;editable=1;locked=0;fillColor=#FFFFCC;allowArrows=0;" parent="z-EQUoiPfeqX8l1Wrxvd-1" vertex="1">
          <mxGeometry x="490" y="338" width="20" height="20" as="geometry" />
        </mxCell>
        <mxCell id="OCiIXH6qGYYZiMOmdeSZ-1" value="&lt;font size=&quot;1&quot; style=&quot;&quot;&gt;&lt;b style=&quot;font-size: 17px;&quot;&gt;F&lt;/b&gt;&lt;/font&gt;" style="ellipse;whiteSpace=wrap;html=1;aspect=fixed;strokeColor=#FF0000;strokeWidth=3;connectable=0;movable=1;resizable=1;rotatable=1;deletable=1;editable=1;locked=0;fillColor=#FFCCCC;allowArrows=0;" parent="z-EQUoiPfeqX8l1Wrxvd-1" vertex="1">
          <mxGeometry x="90" y="140" width="20" height="20" as="geometry" />
        </mxCell>
        <mxCell id="OCiIXH6qGYYZiMOmdeSZ-2" value="&lt;font size=&quot;1&quot; style=&quot;&quot;&gt;&lt;b style=&quot;font-size: 17px;&quot;&gt;G&lt;/b&gt;&lt;/font&gt;" style="ellipse;whiteSpace=wrap;html=1;aspect=fixed;strokeColor=default;strokeWidth=1;connectable=0;movable=1;resizable=1;rotatable=1;deletable=1;editable=1;locked=0;fillColor=#FFCCCC;allowArrows=0;" parent="z-EQUoiPfeqX8l1Wrxvd-1" vertex="1">
          <mxGeometry x="170" y="140" width="20" height="20" as="geometry" />
        </mxCell>
        <mxCell id="OCiIXH6qGYYZiMOmdeSZ-6" value="&lt;span style=&quot;font-size: 17px;&quot;&gt;&lt;b&gt;A#&lt;/b&gt;&lt;/span&gt;" style="ellipse;whiteSpace=wrap;html=1;aspect=fixed;strokeColor=default;strokeWidth=1;connectable=0;movable=1;resizable=1;rotatable=1;deletable=1;editable=1;locked=0;fillColor=#FFCCCC;allowArrows=0;" parent="z-EQUoiPfeqX8l1Wrxvd-1" vertex="1">
          <mxGeometry x="290" y="140" width="20" height="20" as="geometry" />
        </mxCell>
        <mxCell id="OCiIXH6qGYYZiMOmdeSZ-10" value="&lt;font size=&quot;1&quot; style=&quot;&quot;&gt;&lt;b style=&quot;font-size: 17px;&quot;&gt;C&lt;/b&gt;&lt;/font&gt;" style="ellipse;whiteSpace=wrap;html=1;aspect=fixed;strokeColor=#000000;strokeWidth=1;connectable=0;movable=1;resizable=1;rotatable=1;deletable=1;editable=1;locked=0;fillColor=#FFCCCC;allowArrows=0;" parent="z-EQUoiPfeqX8l1Wrxvd-1" vertex="1">
          <mxGeometry x="90" y="180" width="20" height="20" as="geometry" />
        </mxCell>
        <mxCell id="OCiIXH6qGYYZiMOmdeSZ-12" value="&lt;font size=&quot;1&quot; style=&quot;&quot;&gt;&lt;b style=&quot;font-size: 17px;&quot;&gt;D#&lt;/b&gt;&lt;/font&gt;" style="ellipse;whiteSpace=wrap;html=1;aspect=fixed;strokeColor=default;strokeWidth=1;connectable=0;movable=1;resizable=1;rotatable=1;deletable=1;editable=1;locked=0;fillColor=#FFCCCC;allowArrows=0;" parent="z-EQUoiPfeqX8l1Wrxvd-1" vertex="1">
          <mxGeometry x="210" y="180" width="20" height="20" as="geometry" />
        </mxCell>
        <mxCell id="OCiIXH6qGYYZiMOmdeSZ-14" value="&lt;font size=&quot;1&quot; style=&quot;&quot;&gt;&lt;b style=&quot;font-size: 17px;&quot;&gt;F&lt;/b&gt;&lt;/font&gt;" style="ellipse;whiteSpace=wrap;html=1;aspect=fixed;strokeColor=#FF0000;strokeWidth=3;connectable=0;movable=1;resizable=1;rotatable=1;deletable=1;editable=1;locked=0;fillColor=#FFCCCC;allowArrows=0;" parent="z-EQUoiPfeqX8l1Wrxvd-1" vertex="1">
          <mxGeometry x="290" y="180" width="20" height="20" as="geometry" />
        </mxCell>
        <mxCell id="OCiIXH6qGYYZiMOmdeSZ-18" value="&lt;font style=&quot;font-size: 17px;&quot;&gt;&lt;b&gt;C&lt;/b&gt;&lt;/font&gt;" style="ellipse;whiteSpace=wrap;html=1;aspect=fixed;strokeColor=default;strokeWidth=1;connectable=0;movable=1;resizable=1;rotatable=1;deletable=1;editable=1;locked=0;fillColor=#FFFFCC;allowArrows=0;" parent="z-EQUoiPfeqX8l1Wrxvd-1" vertex="1">
          <mxGeometry x="251" y="220" width="20" height="20" as="geometry" />
        </mxCell>
        <mxCell id="Vr56Dibj5fCs70xaUFmW-0" value="&lt;font style=&quot;font-size: 17px;&quot;&gt;&lt;b&gt;D#&lt;/b&gt;&lt;/font&gt;" style="ellipse;whiteSpace=wrap;html=1;aspect=fixed;strokeColor=default;strokeWidth=1;connectable=0;movable=1;resizable=1;rotatable=1;deletable=1;editable=1;locked=0;fillColor=#FFFFCC;allowArrows=0;" parent="z-EQUoiPfeqX8l1Wrxvd-1" vertex="1">
          <mxGeometry x="90" y="260" width="20" height="20" as="geometry" />
        </mxCell>
        <mxCell id="Vr56Dibj5fCs70xaUFmW-2" value="&lt;font style=&quot;font-size: 17px;&quot;&gt;&lt;b&gt;F&lt;/b&gt;&lt;/font&gt;" style="ellipse;whiteSpace=wrap;html=1;aspect=fixed;strokeColor=#FF0000;strokeWidth=3;connectable=0;movable=1;resizable=1;rotatable=1;deletable=1;editable=1;locked=0;fillColor=#FFFFCC;allowArrows=0;" parent="z-EQUoiPfeqX8l1Wrxvd-1" vertex="1">
          <mxGeometry x="170" y="260" width="20" height="20" as="geometry" />
        </mxCell>
        <mxCell id="Vr56Dibj5fCs70xaUFmW-3" value="&lt;font style=&quot;font-size: 17px;&quot;&gt;&lt;b&gt;G&lt;/b&gt;&lt;/font&gt;" style="ellipse;whiteSpace=wrap;html=1;aspect=fixed;strokeColor=default;strokeWidth=1;connectable=0;movable=1;resizable=1;rotatable=1;deletable=1;editable=1;locked=0;fillColor=#FFFFCC;allowArrows=0;" parent="z-EQUoiPfeqX8l1Wrxvd-1" vertex="1">
          <mxGeometry x="250" y="260" width="20" height="20" as="geometry" />
        </mxCell>
        <mxCell id="Vr56Dibj5fCs70xaUFmW-4" value="&lt;font style=&quot;font-size: 17px;&quot;&gt;&lt;b&gt;G&lt;/b&gt;&lt;/font&gt;" style="ellipse;whiteSpace=wrap;html=1;aspect=fixed;strokeColor=default;strokeWidth=1;connectable=0;movable=1;resizable=1;rotatable=1;deletable=1;editable=1;locked=0;fillColor=#FFFFCC;allowArrows=0;" parent="z-EQUoiPfeqX8l1Wrxvd-1" vertex="1">
          <mxGeometry x="50" y="220" width="20" height="20" as="geometry" />
        </mxCell>
        <mxCell id="Vr56Dibj5fCs70xaUFmW-5" value="&lt;font style=&quot;font-size: 17px;&quot;&gt;&lt;b&gt;A#&lt;/b&gt;&lt;/font&gt;" style="ellipse;whiteSpace=wrap;html=1;aspect=fixed;strokeColor=#000000;strokeWidth=1;connectable=0;movable=1;resizable=1;rotatable=1;deletable=1;editable=1;locked=0;fillColor=#FFFFCC;allowArrows=0;perimeterSpacing=1;" parent="z-EQUoiPfeqX8l1Wrxvd-1" vertex="1">
          <mxGeometry x="370" y="259.5" width="20" height="20" as="geometry" />
        </mxCell>
        <mxCell id="Vr56Dibj5fCs70xaUFmW-8" value="&lt;font style=&quot;font-size: 17px;&quot;&gt;&lt;b&gt;C&lt;/b&gt;&lt;/font&gt;" style="ellipse;whiteSpace=wrap;html=1;aspect=fixed;strokeColor=default;strokeWidth=1;connectable=0;movable=1;resizable=1;rotatable=1;deletable=1;editable=1;locked=0;fillColor=#FFFFCC;allowArrows=0;" parent="z-EQUoiPfeqX8l1Wrxvd-1" vertex="1">
          <mxGeometry x="168" y="300" width="20" height="20" as="geometry" />
        </mxCell>
        <mxCell id="Vr56Dibj5fCs70xaUFmW-9" value="&lt;font style=&quot;font-size: 17px;&quot;&gt;&lt;b&gt;D#&lt;/b&gt;&lt;/font&gt;" style="ellipse;whiteSpace=wrap;html=1;aspect=fixed;strokeColor=default;strokeWidth=1;connectable=0;movable=1;resizable=1;rotatable=1;deletable=1;editable=1;locked=0;fillColor=#FFFFCC;allowArrows=0;" parent="z-EQUoiPfeqX8l1Wrxvd-1" vertex="1">
          <mxGeometry x="290" y="300" width="20" height="20" as="geometry" />
        </mxCell>
        <mxCell id="Vr56Dibj5fCs70xaUFmW-12" value="&lt;font style=&quot;font-size: 17px;&quot;&gt;&lt;b&gt;F&lt;/b&gt;&lt;/font&gt;" style="ellipse;whiteSpace=wrap;html=1;aspect=fixed;strokeColor=#FF0000;strokeWidth=3;connectable=0;movable=1;resizable=1;rotatable=1;deletable=1;editable=1;locked=0;fillColor=#CCFFCC;allowArrows=0;" parent="z-EQUoiPfeqX8l1Wrxvd-1" vertex="1">
          <mxGeometry x="90" y="338" width="20" height="20" as="geometry" />
        </mxCell>
        <mxCell id="Vr56Dibj5fCs70xaUFmW-13" value="&lt;font style=&quot;font-size: 17px;&quot;&gt;&lt;b&gt;G&lt;/b&gt;&lt;/font&gt;" style="ellipse;whiteSpace=wrap;html=1;aspect=fixed;strokeColor=default;strokeWidth=1;connectable=0;movable=1;resizable=1;rotatable=1;deletable=1;editable=1;locked=0;fillColor=#CCFFCC;allowArrows=0;" parent="z-EQUoiPfeqX8l1Wrxvd-1" vertex="1">
          <mxGeometry x="168" y="338" width="20" height="20" as="geometry" />
        </mxCell>
        <mxCell id="Vr56Dibj5fCs70xaUFmW-21" value="" style="endArrow=oval;html=1;rounded=0;strokeWidth=3;startArrow=oval;startFill=1;endFill=1;" parent="z-EQUoiPfeqX8l1Wrxvd-1" edge="1">
          <mxGeometry width="50" height="50" relative="1" as="geometry">
            <mxPoint x="100" y="380" as="sourcePoint" />
            <mxPoint x="220" y="380" as="targetPoint" />
          </mxGeometry>
        </mxCell>
        <mxCell id="Vr56Dibj5fCs70xaUFmW-22" value="1" style="edgeLabel;html=1;align=center;verticalAlign=middle;resizable=0;points=[];fontSize=20;" parent="Vr56Dibj5fCs70xaUFmW-21" vertex="1" connectable="0">
          <mxGeometry x="-0.6079" y="-2" relative="1" as="geometry">
            <mxPoint x="-24" y="18" as="offset" />
          </mxGeometry>
        </mxCell>
        <mxCell id="Vr56Dibj5fCs70xaUFmW-23" value="" style="endArrow=oval;html=1;rounded=0;strokeWidth=3;startArrow=oval;startFill=1;endFill=1;" parent="z-EQUoiPfeqX8l1Wrxvd-1" edge="1">
          <mxGeometry width="50" height="50" relative="1" as="geometry">
            <mxPoint x="180" y="400" as="sourcePoint" />
            <mxPoint x="305" y="400" as="targetPoint" />
          </mxGeometry>
        </mxCell>
        <mxCell id="Vr56Dibj5fCs70xaUFmW-24" value="3" style="edgeLabel;html=1;align=center;verticalAlign=middle;resizable=0;points=[];fontSize=20;" parent="Vr56Dibj5fCs70xaUFmW-23" vertex="1" connectable="0">
          <mxGeometry x="-0.6079" y="-2" relative="1" as="geometry">
            <mxPoint x="-24" y="18" as="offset" />
          </mxGeometry>
        </mxCell>
        <mxCell id="Vr56Dibj5fCs70xaUFmW-25" value="" style="endArrow=oval;html=1;rounded=0;strokeWidth=3;startArrow=oval;startFill=1;endFill=1;" parent="z-EQUoiPfeqX8l1Wrxvd-1" edge="1">
          <mxGeometry width="50" height="50" relative="1" as="geometry">
            <mxPoint x="300" y="420" as="sourcePoint" />
            <mxPoint x="425" y="420" as="targetPoint" />
          </mxGeometry>
        </mxCell>
        <mxCell id="Vr56Dibj5fCs70xaUFmW-26" value="6" style="edgeLabel;html=1;align=center;verticalAlign=middle;resizable=0;points=[];fontSize=20;" parent="Vr56Dibj5fCs70xaUFmW-25" vertex="1" connectable="0">
          <mxGeometry x="-0.6079" y="-2" relative="1" as="geometry">
            <mxPoint x="-24" y="18" as="offset" />
          </mxGeometry>
        </mxCell>
        <mxCell id="Vr56Dibj5fCs70xaUFmW-27" value="" style="endArrow=oval;html=1;rounded=0;strokeWidth=3;startArrow=oval;startFill=1;endFill=1;" parent="z-EQUoiPfeqX8l1Wrxvd-1" edge="1">
          <mxGeometry width="50" height="50" relative="1" as="geometry">
            <mxPoint x="385" y="370" as="sourcePoint" />
            <mxPoint x="500" y="370" as="targetPoint" />
          </mxGeometry>
        </mxCell>
        <mxCell id="Vr56Dibj5fCs70xaUFmW-28" value="8" style="edgeLabel;html=1;align=center;verticalAlign=middle;resizable=0;points=[];fontSize=20;" parent="Vr56Dibj5fCs70xaUFmW-27" vertex="1" connectable="0">
          <mxGeometry x="-0.6079" y="-2" relative="1" as="geometry">
            <mxPoint x="-18" y="18" as="offset" />
          </mxGeometry>
        </mxCell>
        <mxCell id="Vr56Dibj5fCs70xaUFmW-31" value="" style="endArrow=oval;html=1;rounded=0;strokeWidth=3;startArrow=oval;startFill=1;endFill=1;" parent="z-EQUoiPfeqX8l1Wrxvd-1" edge="1">
          <mxGeometry width="50" height="50" relative="1" as="geometry">
            <mxPoint x="500" y="400" as="sourcePoint" />
            <mxPoint x="580" y="400" as="targetPoint" />
          </mxGeometry>
        </mxCell>
        <mxCell id="Vr56Dibj5fCs70xaUFmW-32" value="10" style="edgeLabel;html=1;align=center;verticalAlign=middle;resizable=0;points=[];fontSize=20;" parent="Vr56Dibj5fCs70xaUFmW-31" vertex="1" connectable="0">
          <mxGeometry x="-0.6079" y="-2" relative="1" as="geometry">
            <mxPoint x="-16" y="18" as="offset" />
          </mxGeometry>
        </mxCell>
        <mxCell id="HnNQt_IELcIBWVnGOHUG-0" value="&lt;span style=&quot;font-size: 17px;&quot;&gt;&lt;b&gt;F&lt;/b&gt;&lt;/span&gt;" style="ellipse;whiteSpace=wrap;html=1;aspect=fixed;strokeColor=#FF0000;strokeWidth=3;connectable=0;movable=1;resizable=1;rotatable=1;deletable=1;editable=1;locked=0;fillColor=#CCCCFF;allowArrows=0;" parent="z-EQUoiPfeqX8l1Wrxvd-1" vertex="1">
          <mxGeometry x="570" y="140" width="20" height="20" as="geometry" />
        </mxCell>
        <mxCell id="HnNQt_IELcIBWVnGOHUG-1" value="&lt;font style=&quot;font-size: 17px;&quot;&gt;&lt;b&gt;A#&lt;/b&gt;&lt;/font&gt;" style="ellipse;whiteSpace=wrap;html=1;aspect=fixed;strokeColor=#000000;strokeWidth=1;connectable=0;movable=1;resizable=1;rotatable=1;deletable=1;editable=1;locked=0;fillColor=#FFCCCC;allowArrows=0;perimeterSpacing=1;" parent="z-EQUoiPfeqX8l1Wrxvd-1" vertex="1">
          <mxGeometry x="490" y="180" width="20" height="20" as="geometry" />
        </mxCell>
        <mxCell id="HnNQt_IELcIBWVnGOHUG-2" value="&lt;span style=&quot;font-size: 17px;&quot;&gt;&lt;b&gt;C&lt;/b&gt;&lt;/span&gt;" style="ellipse;whiteSpace=wrap;html=1;aspect=fixed;strokeColor=#000000;strokeWidth=1;connectable=0;movable=1;resizable=1;rotatable=1;deletable=1;editable=1;locked=0;fillColor=#CCCCFF;allowArrows=0;" parent="z-EQUoiPfeqX8l1Wrxvd-1" vertex="1">
          <mxGeometry x="570" y="180" width="20" height="20" as="geometry" />
        </mxCell>
        <mxCell id="HnNQt_IELcIBWVnGOHUG-3" value="&lt;font style=&quot;font-size: 17px;&quot;&gt;&lt;b&gt;A#&lt;/b&gt;&lt;/font&gt;" style="ellipse;whiteSpace=wrap;html=1;aspect=fixed;strokeColor=#000000;strokeWidth=1;connectable=0;movable=1;resizable=1;rotatable=1;deletable=1;editable=1;locked=0;fillColor=#FFFFCC;allowArrows=0;perimeterSpacing=1;" parent="z-EQUoiPfeqX8l1Wrxvd-1" vertex="1">
          <mxGeometry x="170" y="220" width="20" height="20" as="geometry" />
        </mxCell>
        <mxCell id="HnNQt_IELcIBWVnGOHUG-4" value="&lt;font size=&quot;1&quot; style=&quot;&quot;&gt;&lt;b style=&quot;font-size: 17px;&quot;&gt;G&lt;/b&gt;&lt;/font&gt;" style="ellipse;whiteSpace=wrap;html=1;aspect=fixed;strokeColor=default;strokeWidth=1;connectable=0;movable=1;resizable=1;rotatable=1;deletable=1;editable=1;locked=0;fillColor=#FFCCCC;allowArrows=0;" parent="z-EQUoiPfeqX8l1Wrxvd-1" vertex="1">
          <mxGeometry x="530" y="219" width="20" height="20" as="geometry" />
        </mxCell>
        <mxCell id="HnNQt_IELcIBWVnGOHUG-6" value="&lt;font size=&quot;1&quot; style=&quot;&quot;&gt;&lt;b style=&quot;font-size: 17px;&quot;&gt;D#&lt;/b&gt;&lt;/font&gt;" style="ellipse;whiteSpace=wrap;html=1;aspect=fixed;strokeColor=default;strokeWidth=1;connectable=0;movable=1;resizable=1;rotatable=1;deletable=1;editable=1;locked=0;fillColor=#FFCCCC;allowArrows=0;" parent="z-EQUoiPfeqX8l1Wrxvd-1" vertex="1">
          <mxGeometry x="570" y="259.5" width="20" height="20" as="geometry" />
        </mxCell>
        <mxCell id="HnNQt_IELcIBWVnGOHUG-7" value="&lt;font style=&quot;font-size: 17px;&quot;&gt;&lt;b&gt;A#&lt;/b&gt;&lt;/font&gt;" style="ellipse;whiteSpace=wrap;html=1;aspect=fixed;strokeColor=#000000;strokeWidth=1;connectable=0;movable=1;resizable=1;rotatable=1;deletable=1;editable=1;locked=0;fillColor=#CCFFCC;allowArrows=0;perimeterSpacing=1;" parent="z-EQUoiPfeqX8l1Wrxvd-1" vertex="1">
          <mxGeometry x="90" y="300" width="20" height="20" as="geometry" />
        </mxCell>
        <mxCell id="HnNQt_IELcIBWVnGOHUG-8" value="&lt;font style=&quot;font-size: 17px;&quot;&gt;&lt;b&gt;A#&lt;/b&gt;&lt;/font&gt;" style="ellipse;whiteSpace=wrap;html=1;aspect=fixed;strokeColor=#000000;strokeWidth=1;connectable=0;movable=1;resizable=1;rotatable=1;deletable=1;editable=1;locked=0;fillColor=#FFFFCC;allowArrows=0;perimeterSpacing=1;" parent="z-EQUoiPfeqX8l1Wrxvd-1" vertex="1">
          <mxGeometry x="570" y="300" width="20" height="20" as="geometry" />
        </mxCell>
        <mxCell id="HnNQt_IELcIBWVnGOHUG-11" value="&lt;font style=&quot;font-size: 17px;&quot;&gt;&lt;b&gt;A#&lt;/b&gt;&lt;/font&gt;" style="ellipse;whiteSpace=wrap;html=1;aspect=fixed;strokeColor=default;strokeWidth=1;connectable=0;movable=1;resizable=1;rotatable=1;deletable=1;editable=1;locked=0;fillColor=#CCFFCC;allowArrows=0;" parent="z-EQUoiPfeqX8l1Wrxvd-1" vertex="1">
          <mxGeometry x="290" y="338" width="20" height="20" as="geometry" />
        </mxCell>
        <mxCell id="HnNQt_IELcIBWVnGOHUG-13" value="&lt;font style=&quot;font-size: 17px;&quot;&gt;&lt;b&gt;F&lt;/b&gt;&lt;/font&gt;" style="ellipse;whiteSpace=wrap;html=1;aspect=fixed;strokeColor=#FF0000;strokeWidth=3;connectable=0;movable=1;resizable=1;rotatable=1;deletable=1;editable=1;locked=0;fillColor=#FFFFCC;allowArrows=0;" parent="z-EQUoiPfeqX8l1Wrxvd-1" vertex="1">
          <mxGeometry x="570" y="338" width="20" height="20" as="geometry" />
        </mxCell>
        <mxCell id="HnNQt_IELcIBWVnGOHUG-14" value="" style="endArrow=oval;html=1;rounded=0;strokeWidth=3;startArrow=oval;startFill=1;endFill=1;dashed=1;dashPattern=1 1;" parent="z-EQUoiPfeqX8l1Wrxvd-1" edge="1">
          <mxGeometry width="50" height="50" relative="1" as="geometry">
            <mxPoint x="460" y="400" as="sourcePoint" />
            <mxPoint x="500" y="400" as="targetPoint" />
          </mxGeometry>
        </mxCell>
        <mxCell id="Vju-cmNd2rp3K9IRH2Zs-0" value="&lt;font size=&quot;1&quot; style=&quot;&quot;&gt;&lt;b style=&quot;font-size: 17px;&quot;&gt;G#&lt;/b&gt;&lt;/font&gt;" style="ellipse;whiteSpace=wrap;html=1;aspect=fixed;strokeColor=default;strokeWidth=1;connectable=0;movable=1;resizable=1;rotatable=1;deletable=1;editable=1;locked=0;fillColor=#FFCCCC;allowArrows=0;" vertex="1" parent="z-EQUoiPfeqX8l1Wrxvd-1">
          <mxGeometry x="210" y="140" width="20" height="20" as="geometry" />
        </mxCell>
        <mxCell id="Vju-cmNd2rp3K9IRH2Zs-1" value="&lt;span style=&quot;font-size: 17px;&quot;&gt;&lt;b&gt;C#&lt;/b&gt;&lt;/span&gt;" style="ellipse;whiteSpace=wrap;html=1;aspect=fixed;strokeColor=#000000;strokeWidth=1;connectable=0;movable=1;resizable=1;rotatable=1;deletable=1;editable=1;locked=0;fillColor=#CCCCFF;allowArrows=0;" vertex="1" parent="z-EQUoiPfeqX8l1Wrxvd-1">
          <mxGeometry x="409" y="140" width="20" height="20" as="geometry" />
        </mxCell>
        <mxCell id="Vju-cmNd2rp3K9IRH2Zs-2" value="&lt;span style=&quot;font-size: 17px;&quot;&gt;&lt;b&gt;D#&lt;/b&gt;&lt;/span&gt;" style="ellipse;whiteSpace=wrap;html=1;aspect=fixed;strokeColor=default;strokeWidth=1;connectable=0;movable=1;resizable=1;rotatable=1;deletable=1;editable=1;locked=0;fillColor=#CCCCFF;allowArrows=0;" vertex="1" parent="z-EQUoiPfeqX8l1Wrxvd-1">
          <mxGeometry x="490" y="140" width="20" height="20" as="geometry" />
        </mxCell>
        <mxCell id="Vju-cmNd2rp3K9IRH2Zs-3" value="&lt;font size=&quot;1&quot; style=&quot;&quot;&gt;&lt;b style=&quot;font-size: 17px;&quot;&gt;C#&lt;/b&gt;&lt;/font&gt;" style="ellipse;whiteSpace=wrap;html=1;aspect=fixed;strokeColor=#000000;strokeWidth=1;connectable=0;movable=1;resizable=1;rotatable=1;deletable=1;editable=1;locked=0;fillColor=#FFCCCC;allowArrows=0;" vertex="1" parent="z-EQUoiPfeqX8l1Wrxvd-1">
          <mxGeometry x="130" y="180" width="20" height="20" as="geometry" />
        </mxCell>
        <mxCell id="Vju-cmNd2rp3K9IRH2Zs-4" value="&lt;font size=&quot;1&quot; style=&quot;&quot;&gt;&lt;b style=&quot;font-size: 17px;&quot;&gt;G#&lt;/b&gt;&lt;/font&gt;" style="ellipse;whiteSpace=wrap;html=1;aspect=fixed;strokeColor=default;strokeWidth=1;connectable=0;movable=1;resizable=1;rotatable=1;deletable=1;editable=1;locked=0;fillColor=#FFCCCC;allowArrows=0;" vertex="1" parent="z-EQUoiPfeqX8l1Wrxvd-1">
          <mxGeometry x="410" y="180" width="20" height="20" as="geometry" />
        </mxCell>
        <mxCell id="Vju-cmNd2rp3K9IRH2Zs-5" value="&lt;span style=&quot;font-size: 17px;&quot;&gt;&lt;b&gt;C#&lt;/b&gt;&lt;/span&gt;" style="ellipse;whiteSpace=wrap;html=1;aspect=fixed;strokeColor=#000000;strokeWidth=1;connectable=0;movable=1;resizable=1;rotatable=1;deletable=1;editable=1;locked=0;fillColor=#CCCCFF;allowArrows=0;" vertex="1" parent="z-EQUoiPfeqX8l1Wrxvd-1">
          <mxGeometry x="610" y="180" width="20" height="20" as="geometry" />
        </mxCell>
        <mxCell id="Vju-cmNd2rp3K9IRH2Zs-6" value="&lt;font style=&quot;font-size: 17px;&quot;&gt;&lt;b&gt;G#&lt;/b&gt;&lt;/font&gt;" style="ellipse;whiteSpace=wrap;html=1;aspect=fixed;strokeColor=default;strokeWidth=1;connectable=0;movable=1;resizable=1;rotatable=1;deletable=1;editable=1;locked=0;fillColor=#FFFFCC;allowArrows=0;" vertex="1" parent="z-EQUoiPfeqX8l1Wrxvd-1">
          <mxGeometry x="90" y="220" width="20" height="20" as="geometry" />
        </mxCell>
        <mxCell id="Vju-cmNd2rp3K9IRH2Zs-7" value="&lt;font style=&quot;font-size: 17px;&quot;&gt;&lt;b&gt;C#&lt;/b&gt;&lt;/font&gt;" style="ellipse;whiteSpace=wrap;html=1;aspect=fixed;strokeColor=default;strokeWidth=1;connectable=0;movable=1;resizable=1;rotatable=1;deletable=1;editable=1;locked=0;fillColor=#FFFFCC;allowArrows=0;" vertex="1" parent="z-EQUoiPfeqX8l1Wrxvd-1">
          <mxGeometry x="290" y="219" width="20" height="20" as="geometry" />
        </mxCell>
        <mxCell id="Vju-cmNd2rp3K9IRH2Zs-8" value="&lt;font size=&quot;1&quot; style=&quot;&quot;&gt;&lt;b style=&quot;font-size: 17px;&quot;&gt;D#&lt;/b&gt;&lt;/font&gt;" style="ellipse;whiteSpace=wrap;html=1;aspect=fixed;strokeColor=default;strokeWidth=1;connectable=0;movable=1;resizable=1;rotatable=1;deletable=1;editable=1;locked=0;fillColor=#FFCCCC;allowArrows=0;" vertex="1" parent="z-EQUoiPfeqX8l1Wrxvd-1">
          <mxGeometry x="370" y="220" width="20" height="20" as="geometry" />
        </mxCell>
        <mxCell id="Vju-cmNd2rp3K9IRH2Zs-9" value="&lt;font size=&quot;1&quot; style=&quot;&quot;&gt;&lt;b style=&quot;font-size: 17px;&quot;&gt;G#&lt;/b&gt;&lt;/font&gt;" style="ellipse;whiteSpace=wrap;html=1;aspect=fixed;strokeColor=default;strokeWidth=1;connectable=0;movable=1;resizable=1;rotatable=1;deletable=1;editable=1;locked=0;fillColor=#FFCCCC;allowArrows=0;" vertex="1" parent="z-EQUoiPfeqX8l1Wrxvd-1">
          <mxGeometry x="570" y="219" width="20" height="20" as="geometry" />
        </mxCell>
        <mxCell id="Vju-cmNd2rp3K9IRH2Zs-10" value="&lt;font style=&quot;font-size: 17px;&quot;&gt;&lt;b&gt;G#&lt;/b&gt;&lt;/font&gt;" style="ellipse;whiteSpace=wrap;html=1;aspect=fixed;strokeColor=default;strokeWidth=1;connectable=0;movable=1;resizable=1;rotatable=1;deletable=1;editable=1;locked=0;fillColor=#FFFFCC;allowArrows=0;" vertex="1" parent="z-EQUoiPfeqX8l1Wrxvd-1">
          <mxGeometry x="290" y="259.5" width="20" height="20" as="geometry" />
        </mxCell>
        <mxCell id="Vju-cmNd2rp3K9IRH2Zs-12" value="&lt;font size=&quot;1&quot; style=&quot;&quot;&gt;&lt;b style=&quot;font-size: 17px;&quot;&gt;C#&lt;/b&gt;&lt;/font&gt;" style="ellipse;whiteSpace=wrap;html=1;aspect=fixed;strokeColor=#000000;strokeWidth=1;connectable=0;movable=1;resizable=1;rotatable=1;deletable=1;editable=1;locked=0;fillColor=#FFCCCC;allowArrows=0;" vertex="1" parent="z-EQUoiPfeqX8l1Wrxvd-1">
          <mxGeometry x="490" y="260" width="20" height="20" as="geometry" />
        </mxCell>
        <mxCell id="Vju-cmNd2rp3K9IRH2Zs-13" value="&lt;font style=&quot;font-size: 17px;&quot;&gt;&lt;b&gt;C#&lt;/b&gt;&lt;/font&gt;" style="ellipse;whiteSpace=wrap;html=1;aspect=fixed;strokeColor=default;strokeWidth=1;connectable=0;movable=1;resizable=1;rotatable=1;deletable=1;editable=1;locked=0;fillColor=#FFFFCC;allowArrows=0;" vertex="1" parent="z-EQUoiPfeqX8l1Wrxvd-1">
          <mxGeometry x="210" y="300" width="20" height="20" as="geometry" />
        </mxCell>
        <mxCell id="Vju-cmNd2rp3K9IRH2Zs-14" value="&lt;font style=&quot;font-size: 17px;&quot;&gt;&lt;b&gt;G#&lt;/b&gt;&lt;/font&gt;" style="ellipse;whiteSpace=wrap;html=1;aspect=fixed;strokeColor=default;strokeWidth=1;connectable=0;movable=1;resizable=1;rotatable=1;deletable=1;editable=1;locked=0;fillColor=#FFFFCC;allowArrows=0;" vertex="1" parent="z-EQUoiPfeqX8l1Wrxvd-1">
          <mxGeometry x="490" y="300" width="20" height="20" as="geometry" />
        </mxCell>
        <mxCell id="Vju-cmNd2rp3K9IRH2Zs-15" value="&lt;font style=&quot;font-size: 17px;&quot;&gt;&lt;b&gt;G#&lt;/b&gt;&lt;/font&gt;" style="ellipse;whiteSpace=wrap;html=1;aspect=fixed;strokeColor=default;strokeWidth=1;connectable=0;movable=1;resizable=1;rotatable=1;deletable=1;editable=1;locked=0;fillColor=#CCFFCC;allowArrows=0;" vertex="1" parent="z-EQUoiPfeqX8l1Wrxvd-1">
          <mxGeometry x="210" y="338" width="20" height="20" as="geometry" />
        </mxCell>
        <mxCell id="Vju-cmNd2rp3K9IRH2Zs-16" value="&lt;font style=&quot;font-size: 17px;&quot;&gt;&lt;b&gt;C#&lt;/b&gt;&lt;/font&gt;" style="ellipse;whiteSpace=wrap;html=1;aspect=fixed;strokeColor=default;strokeWidth=1;connectable=0;movable=1;resizable=1;rotatable=1;deletable=1;editable=1;locked=0;fillColor=#FFFFCC;allowArrows=0;" vertex="1" parent="z-EQUoiPfeqX8l1Wrxvd-1">
          <mxGeometry x="410" y="338" width="20" height="20" as="geometry" />
        </mxCell>
        <mxCell id="Vju-cmNd2rp3K9IRH2Zs-18" value="" style="endArrow=oval;html=1;rounded=0;strokeWidth=3;startArrow=oval;startFill=1;endFill=1;dashed=1;dashPattern=1 1;startSize=6;" edge="1" parent="z-EQUoiPfeqX8l1Wrxvd-1">
          <mxGeometry width="50" height="50" relative="1" as="geometry">
            <mxPoint x="60" y="380" as="sourcePoint" />
            <mxPoint x="100" y="380" as="targetPoint" />
            <Array as="points">
              <mxPoint x="70" y="380" />
            </Array>
          </mxGeometry>
        </mxCell>
        <mxCell id="Vju-cmNd2rp3K9IRH2Zs-19" value="" style="endArrow=oval;html=1;rounded=0;strokeWidth=3;startArrow=oval;startFill=1;endFill=1;dashed=1;dashPattern=1 1;" edge="1" parent="z-EQUoiPfeqX8l1Wrxvd-1">
          <mxGeometry width="50" height="50" relative="1" as="geometry">
            <mxPoint x="260" y="420" as="sourcePoint" />
            <mxPoint x="301" y="420" as="targetPoint" />
          </mxGeometry>
        </mxCell>
        <mxCell id="Vju-cmNd2rp3K9IRH2Zs-20" value="" style="endArrow=oval;html=1;rounded=0;strokeWidth=3;startArrow=oval;startFill=1;endFill=1;dashed=1;dashPattern=1 1;" edge="1" parent="z-EQUoiPfeqX8l1Wrxvd-1">
          <mxGeometry width="50" height="50" relative="1" as="geometry">
            <mxPoint x="580" y="400" as="sourcePoint" />
            <mxPoint x="620" y="400" as="targetPoint" />
          </mxGeometry>
        </mxCell>
      </root>
    </mxGraphModel>
  </diagram>
</mxfile>
